<?xml version="1.0" standalone="no"?>
<!DOCTYPE svg PUBLIC "-//W3C//DTD SVG 20010904//EN"
 "http://www.w3.org/TR/2001/REC-SVG-20010904/DTD/svg10.dtd">
<svg version="1.0" xmlns="http://www.w3.org/2000/svg"
 width="260.000000pt" height="260.000000pt" viewBox="0 0 260.000000 260.000000"
 preserveAspectRatio="xMidYMid meet">
<metadata>
Created by potrace 1.14, written by Peter Selinger 2001-2017
</metadata>
<g transform="translate(0.000000,260.000000) scale(0.100000,-0.100000)"
fill="#000000" stroke="none">
<path d="M599 2007 c-26 -25 -38 -49 -47 -88 -15 -72 -23 -117 -27 -159 -2
-19 -7 -63 -10 -97 -4 -34 -13 -67 -21 -74 -34 -28 -8 -69 44 -69 18 0 42 -5
52 -10 10 -6 31 -11 45 -12 18 -2 31 -12 41 -33 42 -89 175 -86 215 4 l13 29
259 -1 259 0 24 -38 c28 -45 53 -60 100 -62 43 -2 89 27 109 69 14 30 16 31
84 31 39 0 84 6 100 13 34 14 48 44 32 64 -7 8 -13 47 -15 87 -2 41 -7 88 -10
104 -8 32 -97 181 -132 220 -34 37 -115 44 -674 51 l-405 6 -36 -35z m941 -1
c122 -8 166 -18 154 -37 -3 -5 0 -8 6 -7 17 4 126 -175 133 -219 4 -21 7 -66
7 -100 0 -34 5 -65 10 -68 5 -3 10 -15 10 -25 0 -23 -40 -33 -133 -35 l-68 0
5 35 c4 26 3 30 -4 15 -7 -17 -9 -18 -9 -2 -1 9 -1 19 -1 22 0 3 -7 19 -15 35
-15 30 -17 30 -96 30 l-80 0 -20 -45 c-18 -42 -23 -45 -57 -45 -20 -1 -127 -1
-236 -1 l-199 -1 -24 31 -24 31 -102 0 c-56 0 -107 -4 -113 -8 -6 -4 -21 -27
-33 -50 -19 -37 -26 -43 -44 -37 -19 7 -55 12 -94 14 -17 1 -16 38 1 44 9 4
16 35 21 104 8 109 10 121 31 213 15 67 30 86 51 68 9 -7 13 -7 13 0 0 6 -6
12 -12 15 -10 3 -10 8 1 21 13 16 46 17 430 12 229 -3 450 -7 491 -10z m76
-379 c8 -8 26 -77 29 -115 6 -68 -79 -122 -140 -90 -29 16 -55 48 -55 70 0 10
-3 19 -7 19 -5 1 -131 2 -282 3 -238 1 -274 0 -278 -14 -19 -60 -58 -89 -113
-85 -39 3 -90 52 -90 85 0 13 -5 18 -15 14 -8 -4 -15 -3 -15 0 0 13 33 86 39
87 3 0 18 2 34 4 31 4 37 -11 8 -20 -18 -5 -41 -51 -41 -80 0 -7 13 -27 29
-44 56 -60 145 -27 145 54 0 34 -38 90 -55 80 -4 -3 -10 -1 -13 4 -3 4 17 7
45 6 42 -2 56 -8 78 -32 l26 -29 235 2 c129 1 238 2 243 3 4 0 15 18 25 39 9
20 21 40 25 43 10 7 135 4 143 -4z m-798 -53 c13 -9 27 -26 32 -38 10 -28 -14
-74 -45 -86 -75 -28 -131 70 -69 119 32 25 52 26 82 5z"/>
<path d="M675 1970 c3 -5 8 -10 11 -10 2 0 4 5 4 10 0 6 -5 10 -11 10 -5 0 -7
-4 -4 -10z"/>
<path d="M735 1970 c3 -5 8 -10 11 -10 2 0 4 5 4 10 0 6 -5 10 -11 10 -5 0 -7
-4 -4 -10z"/>
<path d="M778 1973 c12 -2 30 -2 40 0 9 3 -1 5 -23 4 -22 0 -30 -2 -17 -4z"/>
<path d="M847 1973 c-3 -5 8 -8 23 -8 15 0 26 3 23 8 -2 4 -13 7 -23 7 -10 0
-21 -3 -23 -7z"/>
<path d="M915 1970 c3 -5 8 -10 11 -10 2 0 4 5 4 10 0 6 -5 10 -11 10 -5 0 -7
-4 -4 -10z"/>
<path d="M975 1970 c3 -5 8 -10 11 -10 2 0 4 5 4 10 0 6 -5 10 -11 10 -5 0 -7
-4 -4 -10z"/>
<path d="M1030 1969 c0 -5 5 -7 10 -4 6 3 10 8 10 11 0 2 -4 4 -10 4 -5 0 -10
-5 -10 -11z"/>
<path d="M1087 1973 c18 -2 50 -2 70 0 21 2 7 4 -32 4 -38 0 -55 -2 -38 -4z"/>
<path d="M1205 1970 c-4 -7 87 -1 94 6 3 2 -17 3 -43 3 -26 -1 -49 -5 -51 -9z"/>
<path d="M1310 1970 c0 -5 7 -7 15 -4 8 4 15 8 15 10 0 2 -7 4 -15 4 -8 0 -15
-4 -15 -10z"/>
<path d="M1356 1971 c-3 -4 8 -5 24 -3 23 3 29 0 33 -19 4 -23 4 -23 6 -2 1
18 8 22 44 26 24 2 12 4 -30 4 -40 1 -75 -2 -77 -6z"/>
<path d="M1516 1972 c-2 -4 11 -6 30 -4 19 2 34 6 34 8 0 8 -59 4 -64 -4z"/>
<path d="M1595 1970 c-3 -6 1 -7 9 -4 18 7 21 14 7 14 -6 0 -13 -4 -16 -10z"/>
<path d="M1636 1971 c-4 -5 2 -7 13 -4 14 3 20 -2 26 -24 4 -15 9 -23 12 -16
11 30 -35 70 -51 44z"/>
<path d="M1130 1942 c-95 -4 -95 -4 -97 -66 -1 -48 2 -54 21 -58 17 -3 295 -2
317 1 4 1 6 27 5 59 l-2 57 -95 5 c-51 3 -119 4 -149 2z m213 -21 c13 -1 17
-10 17 -44 l0 -43 -152 0 -153 1 -3 42 c-3 37 0 42 20 45 19 2 208 2 271 -1z"/>
<path d="M691 1924 c-29 -21 -56 -81 -42 -97 10 -13 317 -17 337 -4 10 6 13
69 5 110 0 4 -63 7 -139 7 -111 0 -142 -3 -161 -16z m270 -3 c17 -1 20 -7 17
-43 l-3 -43 -152 -2 c-84 -1 -155 2 -158 7 -10 16 19 63 46 74 21 9 135 12
250 7z"/>
<path d="M1426 1914 c-10 -14 -15 -31 -12 -37 2 -7 5 -3 7 8 1 11 5 0 8 -25
l6 -45 98 1 c100 0 122 9 110 41 -3 7 2 13 11 13 11 0 16 -9 16 -31 0 -27 2
-30 15 -19 13 11 13 16 1 39 -7 14 -19 38 -26 54 -13 27 -14 27 -116 27 -98 0
-102 -1 -118 -26z m218 -4 c8 -8 8 -13 0 -18 -6 -4 -14 -19 -17 -33 -7 -27 -8
-27 -94 -25 l-87 1 -1 38 c0 21 5 42 12 45 19 11 175 4 187 -8z"/>
<path d="M1690 1905 c0 -12 24 -55 31 -55 4 0 1 14 -7 30 -14 27 -24 38 -24
25z"/>
<path d="M1726 1826 c3 -9 10 -16 14 -16 9 0 25 -40 22 -53 -1 -5 2 -6 8 -2
12 7 -10 54 -35 75 -13 11 -15 10 -9 -4z"/>
<path d="M1405 1820 c-3 -5 -1 -10 4 -10 6 0 11 5 11 10 0 6 -2 10 -4 10 -3 0
-8 -4 -11 -10z"/>
<path d="M1409 1798 c-5 -18 -6 -38 -1 -34 7 8 12 36 6 36 -2 0 -4 -1 -5 -2z"/>
<path d="M1483 1753 c-18 -7 -16 -30 4 -37 9 -4 23 0 32 9 14 14 14 17 1 25
-16 11 -19 11 -37 3z"/>
<path d="M1409 1743 c0 -5 -2 -16 -4 -26 -2 -11 -1 -16 3 -13 8 8 14 46 7 46
-3 0 -5 -3 -6 -7z"/>
<path d="M1775 1700 c1 -22 5 -43 8 -46 3 -4 4 13 3 35 -2 23 -6 44 -9 47 -3
3 -4 -13 -2 -36z"/>
<path d="M1410 1675 c7 -9 15 -13 17 -11 7 7 -7 26 -19 26 -6 0 -6 -6 2 -15z"/>
<path d="M1503 1673 c9 -2 25 -2 35 0 9 3 1 5 -18 5 -19 0 -27 -2 -17 -5z"/>
<path d="M1612 1669 c18 -7 31 -22 38 -45 7 -20 14 -34 16 -31 2 2 -1 18 -7
36 -11 31 -36 52 -61 50 -7 0 -1 -5 14 -10z"/>
<path d="M1777 1633 c-6 -12 -8 -67 -2 -61 3 2 7 19 9 36 3 31 1 40 -7 25z"/>
<path d="M1750 1550 c-12 -7 -10 -9 7 -7 12 0 19 5 17 9 -6 10 -6 10 -24 -2z"/>
<path d="M1524 1599 c-29 -8 -64 -56 -64 -88 0 -41 46 -81 93 -81 53 1 97 74
73 121 -18 36 -65 58 -102 48z m77 -38 c11 -13 19 -34 19 -47 0 -22 -30 -63
-47 -65 -5 0 -17 -2 -27 -4 -28 -5 -76 49 -69 78 16 63 87 84 124 38z"/>
<path d="M1576 1557 c3 -10 9 -15 12 -12 3 3 0 11 -7 18 -10 9 -11 8 -5 -6z"/>
<path d="M1534 1528 c-4 -7 -4 -10 1 -6 4 4 15 2 24 -5 14 -11 14 -10 2 6 -16
20 -18 21 -27 5z"/>
<path d="M1535 1500 c3 -5 8 -10 11 -10 2 0 4 5 4 10 0 6 -5 10 -11 10 -5 0
-7 -4 -4 -10z"/>
<path d="M1580 1480 c-9 -6 -10 -10 -3 -10 6 0 15 5 18 10 8 12 4 12 -15 0z"/>
<path d="M790 1559 c0 -5 5 -7 10 -4 6 3 10 8 10 11 0 2 -4 4 -10 4 -5 0 -10
-5 -10 -11z"/>
<path d="M810 1546 c0 -2 7 -7 16 -10 8 -3 12 -2 9 4 -6 10 -25 14 -25 6z"/>
<path d="M760 1519 c0 -5 5 -7 10 -4 6 3 10 8 10 11 0 2 -4 4 -10 4 -5 0 -10
-5 -10 -11z"/>
<path d="M781 1507 c-13 -21 -12 -21 5 -5 10 10 16 20 13 22 -3 3 -11 -5 -18
-17z"/>
<path d="M730 1486 c0 -3 9 -10 20 -16 11 -6 20 -8 20 -6 0 3 -9 10 -20 16
-11 6 -20 8 -20 6z"/>
<path d="M1412 1028 l3 -223 48 -3 47 -3 1 38 c4 159 2 148 29 151 43 5 58
-16 63 -91 5 -80 21 -98 82 -94 35 2 40 5 40 27 0 16 -5 24 -14 22 -22 -5 -29
16 -26 70 3 39 -1 54 -16 69 -19 19 -19 19 1 39 23 23 28 102 9 143 -21 46
-57 58 -207 73 l-62 6 2 -224z m176 126 c19 -13 22 -24 20 -57 l-3 -42 -47 -3
-48 -3 0 60 c0 60 0 61 28 61 15 0 38 -7 50 -16z"/>
<path d="M1115 1232 c-35 -4 -44 -11 -49 -38 -3 -10 -25 -93 -51 -184 -60
-217 -60 -212 -22 -208 25 2 32 9 39 35 8 31 9 31 74 35 36 1 73 0 82 -4 9 -4
14 -7 10 -7 -4 -1 -2 -14 3 -31 9 -25 16 -30 43 -30 44 0 47 6 31 49 -7 20
-35 114 -62 208 -26 95 -52 174 -58 176 -5 1 -23 1 -40 -1z m34 -208 c16 -55
27 -100 26 -102 -2 -2 -28 -5 -59 -6 -61 -3 -67 4 -46 59 5 14 12 36 14 48 18
82 26 110 32 104 3 -2 18 -49 33 -103z"/>
<path d="M1787 1194 c-15 -9 -32 -26 -37 -40 -14 -35 -13 -268 1 -297 28 -62
154 -84 205 -36 33 31 40 63 38 190 -2 121 -12 147 -65 175 -43 22 -108 25
-142 8z m112 -63 c12 -8 15 -36 16 -123 0 -62 -3 -121 -7 -130 -10 -21 -63
-25 -75 -5 -10 17 -12 228 -1 250 9 18 44 22 67 8z"/>
<path d="M738 1178 c-2 -7 -4 -94 -4 -193 l1 -180 103 -3 c103 -3 103 -3 100
20 -3 21 -8 23 -65 24 -35 1 -67 2 -71 3 -5 0 -8 76 -8 169 l1 167 -26 3 c-15
2 -28 -2 -31 -10z"/>
<path d="M2030 1017 c0 -145 2 -166 18 -185 25 -28 59 -40 106 -37 79 6 97 61
86 265 l-5 95 -30 0 -30 0 0 -143 c0 -126 -2 -145 -17 -153 -12 -7 -25 -6 -38
1 -19 10 -20 21 -20 160 0 83 -3 150 -7 151 -5 0 -20 3 -35 5 l-28 5 0 -164z"/>
<path d="M457 1154 c-1 -1 -18 -4 -37 -6 l-35 -4 0 -170 c0 -168 0 -169 23
-172 21 -3 22 -1 22 76 l0 79 34 -1 c19 -1 38 -5 42 -9 5 -4 8 -35 9 -67 1
-64 8 -77 40 -80 36 -4 45 0 45 20 0 13 -5 18 -15 14 -8 -4 -15 -2 -16 2 0 5
-1 35 -2 67 -1 37 -7 61 -16 66 -12 8 -12 12 2 26 26 25 23 120 -3 142 -16 14
-83 26 -93 17z m58 -46 c10 -9 8 -89 -1 -98 -5 -5 -26 -12 -46 -15 l-36 -6 -4
60 c-2 48 0 61 12 64 22 5 68 2 75 -5z"/>
<path d="M2262 1123 c2 -23 8 -29 36 -31 l32 -3 0 -144 c0 -148 3 -158 41
-147 15 3 17 22 15 143 l-1 140 30 -3 c26 -3 30 1 33 25 3 20 -1 27 -15 28
-10 0 -27 2 -38 4 -11 3 -46 7 -78 10 l-58 6 3 -28z"/>
<path d="M309 1125 c-1 -5 -3 -68 -4 -139 -3 -141 -12 -164 -58 -152 -32 8
-33 17 -32 164 0 118 0 123 -20 120 -19 -3 -20 -10 -20 -138 -1 -133 0 -135
25 -162 22 -21 34 -25 65 -22 73 7 80 24 82 194 1 141 0 149 -18 147 -10 -1
-19 -6 -20 -12z"/>
<path d="M2469 1122 c-7 -34 -2 -315 5 -319 5 -3 35 -7 67 -8 58 -1 59 -1 59
26 0 25 -3 27 -37 26 l-38 -2 0 45 c0 45 0 45 35 45 29 0 36 4 38 23 2 12 0
22 -5 21 -4 -1 -22 -1 -39 0 -27 1 -32 6 -36 29 -7 54 0 63 43 56 37 -6 39 -5
39 19 0 22 -6 27 -32 31 -73 12 -98 14 -99 8z"/>
<path d="M40 1103 c-26 -11 -39 -37 -40 -79 0 -46 13 -61 73 -89 36 -17 38
-20 35 -58 -2 -31 -8 -42 -25 -48 -29 -11 -53 13 -53 52 0 19 -5 29 -15 29
-11 0 -15 -11 -15 -38 0 -63 54 -96 110 -67 30 15 40 42 35 90 -2 17 -3 35 -4
41 -1 6 -23 21 -51 34 -27 13 -52 32 -56 42 -8 27 4 56 27 63 27 9 47 -10 51
-45 2 -22 7 -27 16 -21 19 12 21 42 5 74 -11 21 -20 27 -46 26 -17 0 -39 -3
-47 -6z"/>
<path d="M1515 709 c-4 -6 -4 -13 -1 -16 3 -4 6 -1 6 6 0 7 5 9 12 5 7 -4 8
-3 4 4 -9 15 -13 15 -21 1z"/>
<path d="M503 684 c0 -23 1 -24 9 -10 7 12 7 21 0 28 -6 6 -9 0 -9 -18z"/>
<path d="M562 685 c0 -16 2 -22 5 -12 2 9 2 23 0 30 -3 6 -5 -1 -5 -18z"/>
<path d="M620 700 c-8 -5 -10 -10 -5 -10 6 0 17 5 25 10 8 5 11 10 5 10 -5 0
-17 -5 -25 -10z"/>
<path d="M666 697 c3 -10 9 -15 12 -12 3 3 0 11 -7 18 -10 9 -11 8 -5 -6z"/>
<path d="M723 660 c-1 -28 2 -50 5 -50 8 0 8 88 0 95 -2 3 -5 -18 -5 -45z"/>
<path d="M783 689 c-2 -23 3 -25 10 -4 4 8 3 16 -1 19 -4 3 -9 -4 -9 -15z"/>
<path d="M978 703 c7 -3 16 -2 19 1 4 3 -2 6 -13 5 -11 0 -14 -3 -6 -6z"/>
<path d="M1049 703 c0 -5 -2 -16 -4 -26 -2 -11 -1 -16 3 -13 8 8 14 46 7 46
-3 0 -5 -3 -6 -7z"/>
<path d="M1144 686 c2 -15 6 -29 9 -32 3 -4 5 6 3 20 -1 14 -5 29 -9 32 -3 3
-4 -6 -3 -20z"/>
<path d="M1268 703 c7 -3 16 -2 19 1 4 3 -2 6 -13 5 -11 0 -14 -3 -6 -6z"/>
<path d="M1448 685 c-3 -13 -2 -22 2 -20 11 7 20 45 10 45 -4 0 -10 -11 -12
-25z"/>
<path d="M1610 699 c0 -5 5 -7 10 -4 6 3 10 8 10 11 0 2 -4 4 -10 4 -5 0 -10
-5 -10 -11z"/>
<path d="M1733 694 c-3 -9 0 -20 7 -24 8 -5 15 -23 16 -40 2 -30 1 -31 -24
-25 -15 4 -24 3 -20 -1 4 -3 3 -16 -3 -28 -9 -19 -9 -19 4 -3 8 9 24 17 35 17
18 0 21 5 19 35 -2 19 -8 40 -14 46 -6 6 -9 18 -6 25 3 8 2 14 -1 14 -4 0 -9
-7 -13 -16z"/>
<path d="M1823 693 c0 -12 4 -20 8 -17 4 2 10 -2 12 -8 3 -7 6 -8 6 -2 1 5 -5
19 -13 30 -14 19 -15 18 -13 -3z"/>
<path d="M1880 700 c0 -5 5 -10 11 -10 5 0 7 5 4 10 -3 6 -8 10 -11 10 -2 0
-4 -4 -4 -10z"/>
<path d="M1935 700 c-3 -5 -2 -10 4 -10 5 0 13 5 16 10 3 6 2 10 -4 10 -5 0
-13 -4 -16 -10z"/>
<path d="M1976 703 c6 -4 14 -15 17 -23 5 -11 6 -9 4 4 -1 11 -9 21 -17 23
-10 3 -11 2 -4 -4z"/>
<path d="M837 680 c3 -11 9 -22 13 -25 5 -3 6 4 3 15 -3 11 -9 22 -13 25 -5 3
-6 -4 -3 -15z"/>
<path d="M887 670 c-3 -11 0 -23 6 -27 7 -3 9 -3 5 2 -4 4 -3 16 3 26 5 11 6
19 1 19 -6 0 -12 -9 -15 -20z"/>
<path d="M613 640 c0 -25 2 -35 4 -22 2 12 2 32 0 45 -2 12 -4 2 -4 -23z"/>
<path d="M1615 669 c-4 -6 -5 -12 -2 -15 2 -3 7 2 10 11 7 17 1 20 -8 4z"/>
<path d="M526 657 c3 -10 9 -15 12 -12 3 3 0 11 -7 18 -10 9 -11 8 -5 -6z"/>
<path d="M1821 644 c0 -11 3 -14 6 -6 3 7 2 16 -1 19 -3 4 -6 -2 -5 -13z"/>
<path d="M502 616 c1 -19 5 -33 8 -31 7 4 1 65 -6 65 -3 0 -4 -15 -2 -34z"/>
<path d="M561 634 c0 -11 3 -14 6 -6 3 7 2 16 -1 19 -3 4 -6 -2 -5 -13z"/>
<path d="M950 639 c0 -5 10 -9 22 -9 12 0 18 3 14 7 -10 11 -36 12 -36 2z"/>
<path d="M1046 633 c-6 -14 -5 -15 5 -6 7 7 10 15 7 18 -3 3 -9 -2 -12 -12z"/>
<path d="M1236 634 c-3 -7 0 -16 6 -20 6 -4 8 -3 4 4 -4 6 5 12 21 14 l28 3
-27 6 c-18 4 -29 1 -32 -7z"/>
<path d="M1430 635 c-6 -8 -10 -19 -8 -24 1 -6 8 1 15 14 13 28 11 31 -7 10z"/>
<path d="M1513 634 c0 -9 6 -10 17 -4 10 5 21 6 25 2 5 -4 5 -2 1 5 -8 15 -43
13 -43 -3z"/>
<path d="M1850 641 c0 -6 4 -13 10 -16 6 -3 7 1 4 9 -7 18 -14 21 -14 7z"/>
<path d="M1885 641 c-3 -5 -2 -12 3 -15 5 -3 9 1 9 9 0 17 -3 19 -12 6z"/>
<path d="M2050 650 c-8 -26 -7 -41 2 -32 6 6 8 16 5 24 -3 7 -6 11 -7 8z"/>
<path d="M2070 640 c0 -5 5 -10 10 -10 6 0 10 5 10 10 0 6 -4 10 -10 10 -5 0
-10 -4 -10 -10z"/>
<path d="M1994 615 c0 -13 3 -22 7 -19 8 4 6 30 -2 38 -3 3 -5 -5 -5 -19z"/>
<path d="M535 620 c3 -5 8 -10 11 -10 2 0 4 5 4 10 0 6 -5 10 -11 10 -5 0 -7
-4 -4 -10z"/>
<path d="M671 614 c0 -11 3 -14 6 -6 3 7 2 16 -1 19 -3 4 -6 -2 -5 -13z"/>
<path d="M780 619 c0 -5 5 -7 10 -4 6 3 10 8 10 11 0 2 -4 4 -10 4 -5 0 -10
-5 -10 -11z"/>
<path d="M875 620 c-3 -5 -1 -10 4 -10 6 0 11 5 11 10 0 6 -2 10 -4 10 -3 0
-8 -4 -11 -10z"/>
<path d="M1935 620 c-3 -5 -1 -10 4 -10 6 0 11 5 11 10 0 6 -2 10 -4 10 -3 0
-8 -4 -11 -10z"/>
<path d="M1822 600 c0 -14 2 -19 5 -12 2 6 2 18 0 25 -3 6 -5 1 -5 -13z"/>
<path d="M555 600 c-3 -5 -1 -18 4 -27 9 -16 10 -14 11 10 0 28 -5 34 -15 17z"/>
<path d="M859 591 c6 -10 7 -21 4 -25 -3 -3 -1 -6 5 -6 15 0 11 38 -5 45 -10
3 -11 0 -4 -14z"/>
<path d="M1045 601 c-3 -5 -2 -12 3 -15 5 -3 9 1 9 9 0 17 -3 19 -12 6z"/>
<path d="M1145 589 c6 -32 13 -34 13 -4 0 14 -4 25 -9 25 -4 0 -6 -10 -4 -21z"/>
<path d="M1610 600 c0 -5 5 -10 11 -10 5 0 7 5 4 10 -3 6 -8 10 -11 10 -2 0
-4 -4 -4 -10z"/>
<path d="M1875 593 c2 -10 4 -22 4 -26 1 -5 5 -6 10 -3 11 7 3 46 -9 46 -5 0
-7 -8 -5 -17z"/>
<path d="M730 580 c6 -11 13 -20 16 -20 2 0 0 9 -6 20 -6 11 -13 20 -16 20 -2
0 0 -9 6 -20z"/>
<path d="M771 577 c-13 -21 -12 -21 5 -5 10 10 16 20 13 22 -3 3 -11 -5 -18
-17z"/>
<path d="M618 583 c6 -2 9 -10 6 -15 -4 -7 -2 -8 5 -4 13 9 5 26 -12 25 -9 0
-8 -2 1 -6z"/>
<path d="M660 580 c-8 -5 -12 -12 -9 -15 4 -3 12 1 19 10 14 17 11 19 -10 5z"/>
<path d="M951 574 c0 -11 3 -14 6 -6 3 7 2 16 -1 19 -3 4 -6 -2 -5 -13z"/>
<path d="M1405 581 c-3 -5 -1 -12 5 -16 5 -3 10 1 10 9 0 18 -6 21 -15 7z"/>
<path d="M1510 582 c0 -15 28 -23 36 -9 4 7 4 9 -1 5 -4 -4 -14 -3 -22 3 -8 7
-13 8 -13 1z"/>
<path d="M2040 587 c0 -2 6 -10 14 -16 11 -9 16 -9 22 1 4 7 4 10 -1 6 -4 -4
-14 -3 -22 3 -7 6 -13 9 -13 6z"/>
<path d="M1247 569 c7 -7 15 -10 18 -7 3 3 -2 9 -12 12 -14 6 -15 5 -6 -5z"/>
<path d="M1615 570 c-3 -5 -1 -10 4 -10 6 0 11 5 11 10 0 6 -2 10 -4 10 -3 0
-8 -4 -11 -10z"/>
<path d="M1935 570 c-3 -5 1 -10 10 -10 9 0 13 5 10 10 -3 6 -8 10 -10 10 -2
0 -7 -4 -10 -10z"/>
<path d="M1980 570 c-9 -6 -10 -10 -3 -10 6 0 15 5 18 10 8 12 4 12 -15 0z"/>
<path d="M1048 563 c7 -3 16 -2 19 1 4 3 -2 6 -13 5 -11 0 -14 -3 -6 -6z"/>
</g>
</svg>
